<svg xmlns="http://www.w3.org/2000/svg" viewBox="0 0 512 512"><path fill="#ccc" d="M303.995 473.732h-96.002l8.038-33.483 7.766-32.303h64.406l7.753 32.303z"/><path fill="#999" d="M295.956 440.249h-79.925l7.766-32.303 26.128-32.028 38.278 32.028z"/><path d="M512 62.829v311.238c0 18.711-15.17 33.881-33.881 33.881H33.881C15.17 407.946 0 392.778 0 374.067V62.829c0-18.711 15.17-33.881 33.881-33.881H478.12c18.71-.001 33.88 15.17 33.88 33.881z" fill="#ccc"/><path d="M512 62.829v311.238c0 18.711-15.17 33.881-33.881 33.881H205.943l106.264-379h165.912C496.83 28.947 512 44.118 512 62.829z" fill="#e6e6e6"/><path fill="#9bd7f4" d="M0 75.427h512v286.042H0z"/><path fill="#c8edfc" d="M512 75.427v286.042H218.976l80.198-286.042z"/><path fill="#e6e6e6" d="M177.715 464.415h156.557v18.636H177.715z"/><path d="M0 69.836h512v11.182H0zm0 286.999h512v11.182H0z" fill="#b3b3b3"/><path d="M94.039 103.642H79.676c-9.082 0-16.474 7.38-16.474 16.462v31.011c0 9.082 7.392 16.474 16.474 16.474h14.362c9.082 0 16.474-7.392 16.474-16.474v-31.011c.001-9.082-7.391-16.462-16.473-16.462zm4.05 47.473a4.059 4.059 0 0 1-4.05 4.05H79.676a4.051 4.051 0 0 1-4.05-4.05v-31.011a4.048 4.048 0 0 1 4.05-4.038h14.362c2.224 0 4.05 1.814 4.05 4.038v31.011zm120.402-47.473h-14.362c-9.082 0-16.474 7.38-16.474 16.462v31.011c0 9.082 7.392 16.474 16.474 16.474h14.362c9.082 0 16.474-7.392 16.474-16.474v-31.011c.001-9.082-7.392-16.462-16.474-16.462zm4.051 47.473a4.059 4.059 0 0 1-4.05 4.05H204.13a4.051 4.051 0 0 1-4.05-4.05v-31.011a4.048 4.048 0 0 1 4.05-4.038h14.362c2.224 0 4.05 1.814 4.05 4.038v31.011zm148.344-47.473h-14.362c-9.082 0-16.474 7.38-16.474 16.462v31.011c0 9.082 7.392 16.474 16.474 16.474h14.362c9.082 0 16.462-7.392 16.462-16.474v-31.011c0-9.082-7.38-16.462-16.462-16.462zm4.038 47.473a4.048 4.048 0 0 1-4.038 4.05h-14.362a4.051 4.051 0 0 1-4.05-4.05v-31.011a4.048 4.048 0 0 1 4.05-4.038h14.362a4.046 4.046 0 0 1 4.038 4.038v31.011zm-84.472-44.567a16.459 16.459 0 0 0-9.343-2.907h-14.362c-9.082 0-16.462 7.38-16.462 16.462v31.011c0 9.082 7.38 16.474 16.462 16.474h14.362c9.082 0 16.474-7.392 16.474-16.474v-31.009c.001-5.616-2.832-10.586-7.131-13.557zm-5.292 44.567a4.051 4.051 0 0 1-4.05 4.05h-14.362a4.048 4.048 0 0 1-4.038-4.05v-31.011a4.046 4.046 0 0 1 4.038-4.038h14.362a4.048 4.048 0 0 1 4.05 4.038v31.011zm-157.75-47.473h12.424v63.947H127.41zm32.501 0h12.424v63.947h-12.424zm245.142 0h12.424v63.947h-12.424zm-92.945 0h12.424v63.947h-12.424zm124.254 0h12.424v63.947h-12.424zM94.039 269.305H79.676c-9.082 0-16.474 7.392-16.474 16.474v31.011c0 9.082 7.392 16.462 16.474 16.462h14.362c9.082 0 16.474-7.38 16.474-16.462v-31.01c.001-9.081-7.391-16.475-16.473-16.475zm4.05 47.485c0 2.224-1.826 4.038-4.05 4.038H79.676a4.048 4.048 0 0 1-4.05-4.038v-31.01a4.051 4.051 0 0 1 4.05-4.05h14.362a4.059 4.059 0 0 1 4.05 4.05v31.01zm120.402-47.485h-14.362c-9.082 0-16.474 7.392-16.474 16.474v31.011c0 9.082 7.392 16.462 16.474 16.462h14.362a16.44 16.44 0 0 0 9.181-2.795c4.398-2.957 7.293-7.976 7.293-13.667v-31.01c.001-9.081-7.392-16.475-16.474-16.475zm4.051 47.485c0 2.224-1.826 4.038-4.05 4.038H204.13a4.048 4.048 0 0 1-4.05-4.038v-31.01a4.051 4.051 0 0 1 4.05-4.05h14.362a4.059 4.059 0 0 1 4.05 4.05v31.01zm148.344-47.485h-14.362c-9.082 0-16.474 7.392-16.474 16.474v31.011c0 9.082 7.392 16.462 16.474 16.462h14.362c9.082 0 16.462-7.38 16.462-16.462v-31.01c0-9.081-7.38-16.475-16.462-16.475zm4.038 47.485a4.046 4.046 0 0 1-4.038 4.038h-14.362a4.048 4.048 0 0 1-4.05-4.038v-31.01a4.051 4.051 0 0 1 4.05-4.05h14.362a4.048 4.048 0 0 1 4.038 4.05v31.01zm57.387-47.485h-14.35c-9.094 0-16.474 7.392-16.474 16.474v31.011c0 9.082 7.38 16.462 16.474 16.462h14.35c9.082 0 16.474-7.38 16.474-16.462v-31.01c.001-9.081-7.392-16.475-16.474-16.475zm4.051 47.485a4.048 4.048 0 0 1-4.05 4.038h-14.35a4.048 4.048 0 0 1-4.05-4.038v-31.01a4.051 4.051 0 0 1 4.05-4.05h14.35a4.051 4.051 0 0 1 4.05 4.05v31.01zm-186.077-47.484h12.424v63.947h-12.424zm30.911 0h12.424v63.947h-12.424zm-153.786 0h12.424v63.947H127.41zm32.501 0h12.424v63.947h-12.424zm152.197 0h12.424v63.947h-12.424zm120.203-82.832h-14.35c-9.094 0-16.474 7.392-16.474 16.474v30.998c0 9.082 7.38 16.474 16.474 16.474h14.35c9.082 0 16.474-7.392 16.474-16.474v-30.998c.001-9.082-7.392-16.474-16.474-16.474zm4.051 47.472a4.051 4.051 0 0 1-4.05 4.05h-14.35a4.051 4.051 0 0 1-4.05-4.05v-30.998a4.051 4.051 0 0 1 4.05-4.05h14.35a4.051 4.051 0 0 1 4.05 4.05v30.998zm-280.898-47.472h-14.35c-9.082 0-16.474 7.392-16.474 16.474v30.998c0 9.082 7.392 16.474 16.474 16.474h14.35c9.094 0 16.474-7.392 16.474-16.474v-30.998c0-9.082-7.38-16.474-16.474-16.474zm4.05 47.472a4.051 4.051 0 0 1-4.05 4.05h-14.35a4.051 4.051 0 0 1-4.05-4.05v-30.998a4.051 4.051 0 0 1 4.05-4.05h14.35a4.051 4.051 0 0 1 4.05 4.05v30.998zm85.727-47.472h-14.362c-9.082 0-16.474 7.392-16.474 16.474v30.998c0 9.082 7.392 16.474 16.474 16.474h14.362c1.777 0 3.491-.286 5.094-.82 6.597-2.137 11.381-8.349 11.381-15.654v-30.998c-.001-9.082-7.393-16.474-16.475-16.474zm4.05 47.472a4.051 4.051 0 0 1-4.05 4.05h-14.362a4.059 4.059 0 0 1-4.05-4.05v-30.998a4.059 4.059 0 0 1 4.05-4.05h14.362a4.051 4.051 0 0 1 4.05 4.05v30.998zm122.863-47.472h12.424v63.947h-12.424zm-32.502 0h12.424v63.947h-12.424zm-245.141 0h12.424v63.947H94.511zm92.945 0h12.424v63.947h-12.424zm-124.252 0h12.424v63.947H63.204zm244.654 0h-14.35c-9.082 0-16.474 7.392-16.474 16.474v30.998c0 9.082 7.392 16.474 16.474 16.474h14.35c9.082 0 16.474-7.392 16.474-16.474v-30.998c.001-9.082-7.391-16.474-16.474-16.474zm4.051 47.472a4.051 4.051 0 0 1-4.05 4.05h-14.35a4.051 4.051 0 0 1-4.05-4.05v-30.998a4.051 4.051 0 0 1 4.05-4.05h14.35a4.051 4.051 0 0 1 4.05 4.05v30.998z" fill="#4d4d4d"/><path d="M227.673 330.457l7.293-26.016v12.35c0 5.691-2.895 10.71-7.293 13.666zm22.662-80.855l11.381-40.565v24.91c-.001 7.304-4.784 13.516-11.381 15.655zm-.05 19.704h12.424v63.947h-12.424zm30.911 0h12.424v63.947h-12.424zm16.388-149.202v31.011c0 9.082-7.392 16.474-16.474 16.474h-7.778l3.491-12.424h4.286a4.051 4.051 0 0 0 4.05-4.05V125.41l5.293-18.86c4.299 2.969 7.132 7.939 7.132 13.554zm10.274 66.37h-14.35c-9.082 0-16.474 7.392-16.474 16.474v30.998c0 9.082 7.392 16.474 16.474 16.474h14.35c9.082 0 16.474-7.392 16.474-16.474v-30.998c.001-9.082-7.391-16.474-16.474-16.474zm4.051 47.472a4.051 4.051 0 0 1-4.05 4.05h-14.35a4.051 4.051 0 0 1-4.05-4.05v-30.998a4.051 4.051 0 0 1 4.05-4.05h14.35a4.051 4.051 0 0 1 4.05 4.05v30.998zm.199-130.304h12.424v63.947h-12.424zm0 165.664h12.424v63.947h-12.424zm27.544-82.832h12.424v63.947h-12.424zm32.502 0h12.424v63.947h-12.424zm-1.268-82.832h-14.362c-9.082 0-16.474 7.38-16.474 16.462v31.011c0 9.082 7.392 16.474 16.474 16.474h14.362c9.082 0 16.462-7.392 16.462-16.474v-31.011c0-9.082-7.38-16.462-16.462-16.462zm4.038 47.473a4.048 4.048 0 0 1-4.038 4.05h-14.362a4.051 4.051 0 0 1-4.05-4.05v-31.011a4.048 4.048 0 0 1 4.05-4.038h14.362a4.046 4.046 0 0 1 4.038 4.038v31.011zm-4.038 118.19h-14.362c-9.082 0-16.474 7.392-16.474 16.474v31.011c0 9.082 7.392 16.462 16.474 16.462h14.362c9.082 0 16.462-7.38 16.462-16.462v-31.01c0-9.081-7.38-16.475-16.462-16.475zm4.038 47.485a4.046 4.046 0 0 1-4.038 4.038h-14.362a4.048 4.048 0 0 1-4.05-4.038v-31.01a4.051 4.051 0 0 1 4.05-4.05h14.362a4.048 4.048 0 0 1 4.038 4.05v31.01zm30.129-213.148h12.424v63.947h-12.424zm31.309 0h12.424v63.947h-12.424zm-4.051 82.832h-14.35c-9.094 0-16.474 7.392-16.474 16.474v30.998c0 9.082 7.38 16.474 16.474 16.474h14.35c9.082 0 16.474-7.392 16.474-16.474v-30.998c.001-9.082-7.392-16.474-16.474-16.474zm4.051 47.472a4.051 4.051 0 0 1-4.05 4.05h-14.35a4.051 4.051 0 0 1-4.05-4.05v-30.998a4.051 4.051 0 0 1 4.05-4.05h14.35a4.051 4.051 0 0 1 4.05 4.05v30.998zm-4.051 35.359h-14.35c-9.094 0-16.474 7.392-16.474 16.474v31.011c0 9.082 7.38 16.462 16.474 16.462h14.35c9.082 0 16.474-7.38 16.474-16.462v-31.01c.001-9.081-7.392-16.475-16.474-16.475zm4.051 47.485a4.048 4.048 0 0 1-4.05 4.038h-14.35a4.048 4.048 0 0 1-4.05-4.038v-31.01a4.051 4.051 0 0 1 4.05-4.05h14.35a4.051 4.051 0 0 1 4.05 4.05v31.01z" fill="gray"/></svg>