<svg xmlns="http://www.w3.org/2000/svg" width="512" height="512" viewBox="0 0 221.134 221.134"><path d="M32.379 85.866c7.788 0 14.099-9.03 14.099-16.806 0-7.794-6.312-14.103-14.099-14.103-7.782 0-14.097 6.308-14.097 14.103.001 7.776 6.315 16.806 14.097 16.806zm30.178 54.291l-14.565-2.935v-36.435c.399.118.761.21 1.117.322v22.697a5.59 5.59 0 0 0 3.081 4.993l8.927 4.463c.798.391 1.66.585 2.481.585 2.052 0 4.022-1.12 4.996-3.081a5.57 5.57 0 0 0-2.5-7.478l-5.824-2.91v-23.32c0-.055-.04-.1-.04-.149-.012-.411-.143-.798-.234-1.197-.082-.307-.119-.636-.237-.911-.131-.332-.387-.593-.582-.88-.21-.292-.386-.618-.648-.867-.21-.204-.496-.341-.773-.524-.335-.228-.649-.49-1.054-.648-.042-.012-.079-.055-.125-.073-.512-.177-11.795-4.235-22.141-4.741l-1.315 2.658h-.04l3.754 29.24-4.463 7.794-4.463-7.794 3.766-29.24h-.045l-1.321-2.658c-10.336.506-21.623 4.559-22.134 4.742-.046.018-.07.061-.113.073-.405.159-.737.411-1.078.655-.262.177-.545.308-.761.505-.262.262-.426.582-.648.886-.189.287-.433.536-.569.853-.131.295-.155.625-.25.932-.091.393-.222.78-.235 1.184 0 .049-.027.095-.027.144l-.042 20.246c0 1.382.512 2.716 1.428 3.739l.469.512c-.262-.031-.5-.146-.773-.146a5.574 5.574 0 0 0-5.575 5.577v63.145c0 3.081 2.487 5.59 5.575 5.59h37.948a5.587 5.587 0 0 0 5.581-5.59v-39.001l5.73 1.163 2.088 38.216c.186 3.556 3.148 6.326 6.671 6.326.125 0 .25-.006.375-.012a6.695 6.695 0 0 0 6.317-7.045l-2.369-43.392a6.69 6.69 0 0 0-5.36-6.213zm-46.914-39.041c.362-.112.737-.21 1.124-.328v15.658l-1.148-1.279.024-14.051zm1.124 32.015v5.406l-5.605-1.314v-10.261c0-.042-.024-.067-.024-.116l5.629 6.285zm21.187 51.391H11.162v-35.841l26.798 6.297v29.544h-.006zm150.797-98.656c7.794 0 14.103-9.03 14.103-16.806 0-7.794-6.309-14.103-14.103-14.103-7.781 0-14.103 6.308-14.103 14.103.001 7.776 6.322 16.806 14.103 16.806zm26.805 35.512c-.28 0-.523.128-.779.152l.463-.511a5.548 5.548 0 0 0 1.431-3.739l-.03-20.247c0-.055-.037-.1-.037-.143-.012-.405-.134-.792-.243-1.185-.073-.313-.098-.642-.231-.932-.134-.316-.377-.566-.584-.853-.201-.304-.372-.624-.634-.886-.219-.198-.512-.329-.761-.505-.354-.244-.676-.5-1.078-.655-.043-.012-.067-.055-.122-.073-.511-.176-11.788-4.235-22.128-4.741l-1.327 2.658h-.043l3.757 29.246-4.469 7.794-4.445-7.794 3.751-29.246h-.036l-1.328-2.658c-10.339.506-21.629 4.558-22.14 4.741-.043.018-.079.061-.11.073-.401.149-.725.411-1.071.648-.256.183-.548.32-.768.524-.268.25-.432.576-.633.868-.195.286-.45.548-.597.88-.122.28-.146.609-.226.91-.104.399-.237.786-.249 1.197 0 .055-.024.101-.024.149v23.321l-5.834 2.911a5.56 5.56 0 0 0-2.49 7.478 5.565 5.565 0 0 0 4.98 3.087c.847 0 1.688-.194 2.497-.597l8.914-4.457a5.565 5.565 0 0 0 3.081-4.993v-22.697c.359-.113.725-.204 1.127-.323v36.441l-14.571 2.929a6.696 6.696 0 0 0-5.364 6.192l-2.363 43.392c-.207 3.689 2.631 6.844 6.327 7.045.128.006.237.013.359.013a6.699 6.699 0 0 0 6.686-6.327l2.089-38.216 5.718-1.163v39.001c0 3.082 2.496 5.59 5.577 5.59h37.96c3.069 0 5.578-2.502 5.578-5.59v-63.145c-.009-3.055-2.511-5.564-5.58-5.564zm-11.191-20.584c.39.119.767.216 1.12.329l.024 14.051-1.145 1.272v-15.652zm5.613 83.728h-26.811v-29.544l26.811-6.297v35.841zm0-57.56v10.261l-5.613 1.314v-5.406l5.638-6.285c-.001.049-.025.074-.025.116zm-74.878-7.435H86.034a6.687 6.687 0 0 0 0 13.372h1.248v57.195a5.577 5.577 0 0 0 5.581 5.584h35.424a5.58 5.58 0 0 0 5.59-5.584v-57.195h1.224a6.69 6.69 0 0 0 6.692-6.686c-.001-3.69-3.002-6.686-6.693-6.686zm18.383-52.174V47.246c0-2.677-2.198-4.865-4.858-4.865h-22.384V30.695c0-3.504-2.874-6.378-6.388-6.378H74.038c-3.504 0-6.378 2.874-6.378 6.378V57.07c0 3.511 2.874 6.373 6.378 6.373h3.13l-8.893 13.469 25.297-13.469h15.253v3.903c0 2.682 2.191 4.865 4.871 4.865h20.033l19.278 10.263-6.777-10.263h2.394c2.661.013 4.859-2.177 4.859-4.858zm-59.847-8.766a5.182 5.182 0 0 1-5.182-5.182 5.183 5.183 0 0 1 5.182-5.188 5.193 5.193 0 0 1 5.188 5.188 5.19 5.19 0 0 1-5.188 5.182zm16.934 0a5.183 5.183 0 0 1-5.182-5.182 5.183 5.183 0 1 1 10.368 0 5.188 5.188 0 0 1-5.186 5.182zm16.937 0a5.187 5.187 0 0 1-5.188-5.182 5.188 5.188 0 0 1 10.376 0 5.187 5.187 0 0 1-5.188 5.182z" fill="#ff9800"/></svg>