<svg xmlns="http://www.w3.org/2000/svg" viewBox="0 0 511.998 511.998"><path d="M412.659 176.848a128.917 128.917 0 0 0 9.314-48.066C421.973 57.771 364.205 0 293.197 0a129.463 129.463 0 0 0-37.198 5.427c-25.473 7.629-48.049 23.035-64.627 44.516-63.506 4.599-113.797 58.727-113.797 124.601 0 34.181 13.49 66.302 37.374 89.783 2.726 51.479 45.464 92.52 97.606 92.52 6.869 0 13.615-.735 20.171-2.107a97.11 97.11 0 0 0 46.277-23.937c.09.051.18.098.268.147 15.481 8.788 33.044 13.481 51.2 13.481 57.319 0 103.952-46.635 103.952-103.956 0-23.126-7.785-45.535-21.764-63.627z" fill="#91cc04"/><path d="M255.999 346.692a97.24 97.24 0 0 1-23.273 8.048v133.986c0 12.853 10.42 23.273 23.273 23.273s23.273-10.42 23.273-23.273V330.952c-.088-.051-.178-.098-.268-.147a97.168 97.168 0 0 1-23.005 15.887z" fill="#a78966"/><path d="M191.372 49.943c-63.507 4.599-113.797 58.728-113.797 124.601 0 34.181 13.49 66.302 37.374 89.783 2.726 51.479 45.464 92.52 97.606 92.52 6.869 0 13.615-.735 20.171-2.107a97.11 97.11 0 0 0 23.273-8.048V5.427c-25.473 7.631-48.049 23.036-64.627 44.516z" fill="#79ab03"/></svg>