<?xml version="1.0"?>
<svg xmlns:rdf="http://www.w3.org/1999/02/22-rdf-syntax-ns#" xmlns="http://www.w3.org/2000/svg" xmlns:cc="http://creativecommons.org/ns#" xmlns:dc="http://purl.org/dc/elements/1.1/" xmlns:svg="http://www.w3.org/2000/svg" id="svg2" viewBox="0 0 595.68 733.01" version="1.0">
  <g id="layer1" transform="translate(-62.414 -158.01)">
    <path id="path3305" d="m163.69 888.54c-23.02-6.21-48.41-21.54-66.986-40.45-9.444-9.62-13.079-15.11-19.291-29.16-10.842-24.52-14.755-42.65-14.988-69.43-0.293-33.71 5.242-55.33 20.884-81.58 6.885-11.55 25.271-31.25 31.851-35.76 15.33-14.23 32.52-19.9 52.45-25.37 15.66-2.36 38.93-3.48 54.27 1.52 16.53 5.4 16.54 2.89 19.38-1.66 1.75-2.81 4.17-3.58 11.22-3.58 6.93 0 9.26-0.72 10.16-3.13 0.64-1.72 2.5-5.15 4.13-7.61 10.79-16.26 14.32-23.74 12.33-26.14-1.13-1.36-0.32-5.83 0.24-7.97 0.63-2.4-2.25-4.35-3.91-5.56-3.42-2.5-0.66-6.21 4.11-7.45 2.5-0.66 3.32-1.96 2.64-4.21-0.54-1.79-1.89-8.63-3.01-15.2-1.21-7.18-3.32-13.13-5.27-14.89-3.02-2.74-3.89-2.67-12.43 1-11.3 4.87-24.97 4.02-36.36-2.25-6.4-3.52-7.69-5.16-8.15-10.42-0.31-3.43-2.56-11.31-5.01-17.51-2.46-6.2-5.26-18.26-6.23-26.82-1.44-12.64-2.59-16.41-6.17-20.15-2.43-2.53-4.41-5.98-4.41-7.67 0-1.68 6.75-18.96 14.99-38.38 8.25-19.42 17.26-41.67 20.03-49.45 3.48-9.78 10.45-22.2 22.59-40.27 9.66-14.37 18.92-28.15 20.57-30.61 7.49-11.15 19.94-22.19 30.55-27.09 12.06-5.56 15.17-6.04 26.79-4.12 9.25 1.52 19.58-2.76 22-9.11 0.89-2.35 2.39-11.76 3.33-20.9 1.81-17.64 8.25-33.84 14.85-37.38 1.8-0.96 3.28-2.8 3.28-4.09 0-4.66 6.72-8.8 12.01-7.41 2.75 0.72 8.21 1.46 12.15 1.64 7.74 0.36 10.53 1.21 21.47 6.55 3.94 1.92 8.37 3.5 9.85 3.51 1.48 0.02 6.51 3.62 11.18 8 10.11 9.48 11.07 15.81 3.98 26.05-2.7 3.89-4.97 10.25-5.62 15.74-0.6 5.07-2.18 10.12-3.52 11.23-1.35 1.12-2.44 3.35-2.44 4.97 0 4.68-6.83 22.12-10.74 27.42-1.97 2.67-3.58 5.31-3.58 5.87 0 0.57 3.83 6.68 8.5 13.58 11.16 16.47 15.79 24.49 18.41 31.86 1.19 3.32 4.47 9.48 7.31 13.68 2.83 4.2 5.15 8.35 5.15 9.21 0 3.36 30.04 30.83 38.81 35.48 5.1 2.71 11.64 7.84 14.53 11.42 14.96 18.47 31.48 35.14 45.19 45.62 15.88 12.14 23.94 15.33 38.96 15.42 10.53 0.06 13.22 1.89 18.12 12.33 3.72 7.95 3.94 9.62 1.92 14.49-2.46 5.94-11.36 14.39-15.17 14.39-1.28 0-2.74 1.54-3.23 3.43-0.81 3.09-1.69 3.26-8.71 1.63-12.33-2.84-47.64-0.92-55.69 3.04-7.52 3.69-8.18 6.46-3.44 14.27 4.79 7.88 7.34 19.53 7.33 26.84 0 3.52-2.25 12.87-4.22 16.09-1.96 3.23-1.01 5.59-1.01 6.83 0 1.23-1.36 4.17-3.01 6.54-1.66 2.36-3.09 6.14-3.19 8.39s-2.37 6.38-5.05 9.18c-5.75 6-6.2 11.17-1.35 15.56 2.54 2.29 4.91 2.83 8.51 1.92 28.09-7.11 47.41-5.23 68.18 6.64 31.33 17.9 52.11 49.88 59.48 91.54 4.1 23.14 3.96 33.14-1.03 71.77-2.19 16.98-14.72 46.46-23.86 56.14-2.6 2.75-7.09 7.65-9.98 10.87-20.04 22.37-43.88 29.27-78.26 22.64-16.67-3.22-27.86-8.06-42.12-18.24-14.56-10.39-23.44-22.38-32.68-44.1-12.71-29.86-16.27-56.8-11.8-89.14 1.56-11.27 4.5-25.52 6.53-31.67 3.48-10.56 17.54-34.42 25.18-42.74 3.1-3.39 3.32-5.11 1.92-15.53-1.21-9.01-0.97-13.23 1.03-18.24 2.03-5.1 2.13-6.97 0.43-8.63-1.69-1.65-3.98-0.11-10.22 6.83-18.2 20.24-77.58 92.06-77.58 93.84 0 1.05 1.21 1.91 2.69 1.91 1.47 0 2.68 1.54 2.68 3.42 0 2.64-1.74 3.71-7.61 4.66-8.16 1.33-17.45 8.49-17.45 13.45 0 1.64 1.58 4.4 3.51 6.14 8.28 7.5 12.57 36.59 7.26 49.29-1.44 3.45-4.85 8.15-7.59 10.45-6.47 5.45-6.27 6.85 1.44 10.08 6.08 2.54 6.37 3.05 5.85 10.29-0.44 6.07 0.08 7.75 2.55 8.22 1.72 0.33 3.09 2.21 3.09 4.23 0 3.43-0.7 3.56-12.97 2.33-7.14-0.71-19.36-3.64-27.17-6.52-9.35-3.44-15.87-4.85-19.12-4.14-3.08 0.68-6.53 0.05-9.15-1.67-4.23-2.77-11.83-1.93-21.97 2.45-1.97 0.85-4.95 1.97-6.62 2.5-1.66 0.53-5.75 6.85-9.08 14.04s-9.35 16.87-13.39 21.52c-4.03 4.66-8.4 9.91-9.71 11.69-8.9 12.11-40.33 28.9-60.68 32.41-15.45 2.67-34.32 2.4-45.62-0.65zm71.4-29.16c6.77-3.47 17.83-12.34 22.44-17.74 7.85-9.19 19.02-26.81 17.63-27.43-0.97-0.43-23.23 0.72-31.01 2.95-3.44 0.99-12.77 2.47-19.92 2.47h-12.98v-5.99c0-9.7-3.61-17.64-11.89-26.15-5.14-5.27-7.17-8.58-6-9.75 3.14-3.13 1.9-6.43-2.4-6.43-4.29 0-19.09-12.18-19.09-15.71 0-1.07-1.5-2.42-3.34-3.01-6.79-2.15-9.25-6.85-7.3-13.93 1.65-5.97 2.48-6.62 9.8-7.72 6.22-0.93 8-1.95 8-4.58 0-1.85 1.15-3.37 2.56-3.37s9.33-11.08 17.61-24.61c24.85-40.66 23.96-38.79 21.5-45.32-1.76-4.66-1.67-6.64 0.52-10.87 2.12-4.1 2.2-5.33 0.38-5.9-1.26-0.4-5.52-1.75-9.46-2.99s-17.9-1.89-27.91-1.83c-16.7 0.1-32.66 7.29-42.72 13.82-11.75 7.63-23.95 21.51-35.09 36.07-5.35 6.98-7.637 13.55-11.689 24.18-3.272 8.58-5.171 22.24-5.969 38.07s2.197 30.93 3.367 36.6c3.072 14.87 7.172 26.3 11.021 34 4.09 8.15 10.36 18.14 17.33 24.29 7.08 6.25 24.21 19.76 33.17 24.43 8.97 4.66 24.77 7.51 33.75 8.3 7.61 0.67 18.03-0.24 25.37-2.38 6.19-1.8 15.55-6 22.32-9.47zm347.06-21.46c35.26-15.59 62.57-83.6 52.7-131.22-7.67-37.02-25.72-63.82-52.64-78.17-8.94-4.77-12.85-5.75-24.05-6.04-7.35-0.19-14.32 0.25-15.48 0.96-3.06 1.89-2.6 8.34 0.86 12.16 2.79 3.09 2.74 3.55-0.79 7.31l-3.78 4.02 4.4 13.06c5.6 16.63 28.56 60.51 35.14 67.15 5.92 5.98 6.07 6.57 1.65 6.57-1.85 0-4.36 1.21-5.59 2.69-2.68 3.23-9.5 3.49-14.24 0.53-2.82-1.77-4.08-1.6-6.83 0.89-4.16 3.77-8.21 3.9-11.15 0.37-1.22-1.48-3.74-2.69-5.58-2.69-2.71 0-3.36-1.34-3.36-6.94 0-4.25-1.14-7.88-2.95-9.38-3.02-2.51-23.37-42.45-27.16-53.32-2.02-5.81-2.26-5.94-5.49-3.02-4.32 3.91-11.74 20.44-15.8 35.2-2.37 8.65-4.76 12.65-4.74 38.04s3.83 39.85 17.26 63.52c10.68 18.82 33.23 36.55 52.72 41.45 9.68 2.43 25.54 1.01 34.9-3.14zm-336.84-25.87c5.34-0.57 12.67-1.9 15.38-1.9 6.02 0 10.59-1.64 15.73-1.96 1.3 1.94 4.37-6.03 6.26-10.7 1.81-4.48 2.92-11.27 3.4-14.49 0.59-3.93-3.44-4.82-5.4-4.46-1.95 0.37-6.57 0.72-10.78 1.89-4.2 1.17-9.66 2.33-12.12 2.59-3.81 0.39-24.69 5.13-31.77 7.21-3.14 0.92-5.82 14.13-1.47 14.33 3.13 0.15 6.69 1.44 8.13 4.22 3.01 5.83 5.3 4.87 12.64 3.27zm62.84-10.95c1.98-1.56 4.49-5.61 3.84-9.66-0.75-4.7-1.6-12.07-2.85-11.41-1.26 0.66-3.22 9.03-4.29 14.69-0.66 3.51-2.24 7.49-1.46 8.21 0.78 0.71 2.33 0.07 4.76-1.83zm-63.79-26.72c8.73-2.15 16.42-4.39 21.99-6.69 5.11-1.66-9.84-0.1-19.46 0.55-8.26 0.55-16.07 1.66-14.37 4.42 1.49 2.4 5.92 3.41 11.84 1.72zm30.07-11.26c9.45-1.23 10.69-4.83 2.01-5.84-2.88-0.33-6.23-1.43-7.45-2.43-3.03-2.52-46.49-2.67-48.98-0.18-2.8 2.8 0.98 9.06 6 9.94 5.25 0.94 37.39-0.06 48.42-1.49zm7.4-22.19c3.65-1.39 4.59-2.96 4.59-7.7 0-3.27-0.97-6.91-2.15-8.1-2.68-2.67-13.33-2.82-14.95-0.21-0.65 1.06-3.07 1.46-5.36 0.89-2.29-0.58-4.7-0.18-5.36 0.87-0.65 1.06-3.9 1.68-7.22 1.4-3.33-0.29-7.03 0.46-8.23 1.67-1.21 1.2-6.01 2.18-10.68 2.18-8.69 0-12.38 2.4-8.96 5.82 1.05 1.06 8.58 2.25 16.72 2.65 8.15 0.4 15.16 1.07 15.58 1.5 1.5 1.5 21.48 0.75 26.02-0.97zm-61.73-19.12c2.06-2.62 5.04-9.26 6.63-14.77 1.6-5.5 4.8-12.28 7.13-15.06 5.42-6.48 5.32-7.97-0.69-10.61-2.71-1.19-5.53-2.98-6.28-3.99-1.66-2.24-7.03 4.22-12.18 14.66-2.04 4.15-6.41 9.21-9.7 11.24-6.86 4.24-11.05 13.45-7.86 17.29 1.1 1.33 4.68 2.42 7.95 2.42 3.26 0 6.43 0.8 7.04 1.79 1.8 2.9 3.98 2.08 7.96-2.97zm26.05 0.15c6.89-1.51 16.95-3.18 22.37-3.7 15.25-1.47 16.64-3.87 11.34-19.56-3.24-9.59-16.25-29.41-19.31-29.41-3.47 0-32.15 51.04-30.34 53.98 1.2 1.94 1.15 1.94 15.94-1.31zm315.11 0.47c0.5-1.29-3.3-9.95-8.43-19.24-13.21-23.92-28.37-56.24-28.37-60.5 0-5.02-3.62-6.77-4.78-2.31-0.6 2.3-2.71 3.86-5.7 4.2-9.56 1.11-6.27 15.47 10.78 47.09 17.22 31.94 16.09 30.51 23.58 29.83 3.85-0.34 6.54 0.21 6.54 1.35 0 2.74 5.3 2.4 6.38-0.42zm-248-4.92c0-1.04-4-8.43-4.98-7.82-0.99 0.61 1.4 8.49 1.4 8.93 0 0.43 1.13 11.01 2.11 11.01 0.99 0 1.47-11.08 1.47-12.12zm-7.16-36.45c0-1.28 1.62-4.38 3.58-6.89 2.31-2.92 3.58-7.26 3.58-12.15 0-7.6-17.69-66.09-19.99-66.1-0.66-0.01-2.14 3.01-3.28 6.7-1.15 3.7-5.24 13.34-9.09 21.44-7.98 16.77-8.26 18.49-3.73 22.59 1.8 1.63 8.36 10.99 14.58 20.8 10.27 16.2 14.35 20.07 14.35 13.61zm95.15-23.85c19.29-23.1 40.88-50.27 40.88-51.45 0-0.61 8.45-10.83 18.79-22.71s18.78-22.5 18.76-23.61c-0.08-6.55-2.55-6.98-22.9-4-10.88 1.59-23.46 2.89-27.95 2.89-9.61 0-9.66 0.2-4.41 17.18 4.91 15.92 3.83 23.33-5.33 36.39-3.98 5.67-8.93 14.83-10.99 20.35-2.07 5.53-7.74 16.14-12.61 23.6-4.86 7.45-8.85 13.93-8.85 14.39 0 3.08 4.53-0.96 14.61-13.03zm-154.21 6.61c0-1.91 0.97-3.48 2.15-3.48 3.83 0-0.99-3.14-6.62-4.32-4.24-0.89-5.86-0.34-7.67 2.57-2.72 4.36-1.48 7.12 3.19 7.12 1.86 0 3.88 0.82 4.5 1.82 1.64 2.66 4.45 0.32 4.45-3.71zm20-35.07c3.3-2.99 4.53-9.57 1.79-9.57s-9.64 8.67-8.45 10.61c1.62 2.61 2.83 2.42 6.66-1.04zm92.57-7.9c3.96-5.36 4.04-10.62 0.15-10.62-1.87 0-7.12 10.51-7.12 14.26 0 3.4 2.87 1.9 6.97-3.64zm-36.65-10.7c0.42-4.39 1.52-9.99 2.45-12.45 0.94-2.46 2.28-9.98 2.99-16.71l1.29-12.24-12.24 1.27c-6.73 0.7-12.47 1.48-12.76 1.72-0.28 0.24 2.01 8.31 5.09 17.92s5.89 19.8 6.25 22.64c1.5 11.82 5.72 10.51 6.93-2.15zm-70.55 3.66c0-0.98-1.16-1.79-2.58-1.79s-3.07 0.81-3.68 1.79 0.55 1.79 2.58 1.79c2.02 0 3.68-0.81 3.68-1.79zm250.57-0.89c0-1.48-0.81-2.69-1.79-2.69s-1.79 1.21-1.79 2.69c0 1.47 0.81 2.68 1.79 2.68s1.79-1.21 1.79-2.68zm7.59-38.04c2.34-2.64 2.46-4.63 0.78-12.71-1.81-8.69-1.67-9.82 1.42-12.08 1.88-1.38 5.49-2.5 8.01-2.5 2.01 0 3.76 3.17 5.75 3.17 2 0.01 4.25-3.14 5.98-8.1 4.47-12.8-1.01-23.12-8.61-32.43 0 0-1.99-1.83-1.92-2.86 0.39-5.02 0.23-4.07-1.91-2.86-6.62 3.73-12.54 11.5-12.54 11.5-8.13 8.47-13.51 15.58-13.54 17.89-0.04 5.04 11.16 44.11 12.65 44.11 0.63 0 2.4-1.4 3.93-3.13zm-193.73-28.28c0-6.29-19.61-26.96-24-25.27-3.56 1.36-2.12 10.79 2.71 17.68 1.87 2.67 3.4 5.69 3.4 6.72 0 1.04 3.94 1.86 8.94 1.86 4.93 0 8.95-0.44 8.95-0.99zm121.71-11.48c12.3-1.04 25.19-2.09 28.63-2.32 6.08-0.41 6.26-0.64 6.08-7.58-0.1-3.94-0.79-10.5-1.54-14.58-1.32-7.25-1.23-7.45 4.23-8.65 4.66-1.02 9.13-5.28 9.13-8.7 0-1.99-15.51 1.34-18.53 3.97-1.86 1.62-6.79 3-11.19 3.12-7.14 0.2-7.86-0.17-7.86-4.03 0-4.34-1.05-4.84-9.1-4.33-2.53 0.16-5.65-0.96-6.93-2.5-1.66-2-5.59-2.78-13.92-2.78-10.36 0-11.46 0.33-10.28 3.13 3.76 8.95 2.04 24.53-4.05 36.85-2.24 4.53-2.17 5.47 0.64 8.57 2.12 2.35 4.64 3.2 7.73 2.61 2.52-0.48 14.65-1.73 26.96-2.78zm64.95-21.09c4.96-4.68 10.76-10.11 12.89-12.08s9.61-6.4 16.61-9.84c7-3.45 12.77-6.74 12.83-7.31s-1.9-2.11-4.34-3.42c-3.82-2.04-5.44-1.92-11.54 0.83-3.91 1.76-8.92 4.89-11.15 6.96-2.22 2.07-4.87 3.78-5.9 3.8-9.83 0.17-29.35 16-24.17 26.96 2.41 5.09 8.56 1.69 14.77-5.9zm88.78-34.31c5.82-4.39 3.52-7.92-2.98-4.57-2.69 1.38-7.91 2.98-11.6 3.55-9.47 1.47-8.34 4.1 1.8 4.18 5.5 0.04 10.01-1.07 12.78-3.16zm-187.75-3.7c1.05-1.96 4.1-4.08 6.78-4.72 2.67-0.64 5.47-1.51 6.21-1.92 2.49-1.4-2.71-8.43-21.33-28.82-10.19-11.16-21.85-25.26-25.92-31.35s-9.04-12.88-11.04-15.09c-4-4.43-8.38-5.33-8.38-1.73 0 1.26-1.97 8.31-4.38 15.66-3.83 11.67-4.07 13.84-1.92 17.13 1.36 2.07 2.32 7.45 2.15 11.96-0.35 9.02 4.54 17.76 10.6 18.93 1.87 0.36 5.75 2.33 8.62 4.37 4.99 3.54 32.74 18.33 35.43 18.88 0.7 0.14 2.13-1.34 3.18-3.3zm118.99-3.73c5.71-2.88 11.71-5.24 13.32-5.24s4.83-1.33 7.16-2.96c2.32-1.63 6.73-3.49 9.79-4.13 5.38-1.13 5.02-1.45-10.6-9.55-8.89-4.61-17.75-9.57-19.69-11.02-1.93-1.46-13.18-9.03-25-16.83-23.96-15.83-31.32-21.99-31.32-26.22 0-1.57-5.43-8.66-12.08-15.74-6.65-7.09-15.41-16.71-19.47-21.39-7.17-8.25-7.66-8.5-17.44-8.5-6.5 0-10.07-0.74-10.07-2.09 0-3.52-5.7-8.65-9.61-8.65-3.65 0-20.81 15.31-20.81 18.56 0 0.92 3.87 5.79 8.61 10.8 4.74 5.02 12.54 16.37 17.33 25.23 10.07 18.63 24.37 40.7 31.12 48.04 5.73 6.22 12.92 10.13 18.63 10.13 2.36 0 5.71 1.57 7.44 3.48s5.28 3.97 7.88 4.58c2.61 0.6 6.35 3.58 8.32 6.62 4.76 7.35 17.03 12.19 27.89 11.01 4.51-0.49 12.88-3.25 18.6-6.13z"/>
  </g>
  <metadata>
    <rdf:RDF>
      <cc:Work>
        <dc:format>image/svg+xml</dc:format>
        <dc:type rdf:resource="http://purl.org/dc/dcmitype/StillImage"/>
        <cc:license rdf:resource="http://creativecommons.org/licenses/publicdomain/"/>
        <dc:publisher>
          <cc:Agent rdf:about="http://openclipart.org/">
            <dc:title>Openclipart</dc:title>
          </cc:Agent>
        </dc:publisher>
        <dc:title>bicyclist silhouette</dc:title>
        <dc:date>2008-11-18T20:31:31</dc:date>
        <dc:description>bicycle, bicycle, clip art, clipart, cyclo, cyclo, image, media, png, public domain, silhouette, silhouette, svg, velo, velo, </dc:description>
        <dc:source>http://openclipart.org/detail/20251/bicyclist-silhouette-by-waielbi</dc:source>
        <dc:creator>
          <cc:Agent>
            <dc:title>waielbi</dc:title>
          </cc:Agent>
        </dc:creator>
        <dc:subject>
          <rdf:Bag>
            <rdf:li>bicycle</rdf:li>
            <rdf:li>clip art</rdf:li>
            <rdf:li>clipart</rdf:li>
            <rdf:li>cyclo</rdf:li>
            <rdf:li>image</rdf:li>
            <rdf:li>media</rdf:li>
            <rdf:li>png</rdf:li>
            <rdf:li>public domain</rdf:li>
            <rdf:li>silhouette</rdf:li>
            <rdf:li>svg</rdf:li>
            <rdf:li>velo</rdf:li>
          </rdf:Bag>
        </dc:subject>
      </cc:Work>
      <cc:License rdf:about="http://creativecommons.org/licenses/publicdomain/">
        <cc:permits rdf:resource="http://creativecommons.org/ns#Reproduction"/>
        <cc:permits rdf:resource="http://creativecommons.org/ns#Distribution"/>
        <cc:permits rdf:resource="http://creativecommons.org/ns#DerivativeWorks"/>
      </cc:License>
    </rdf:RDF>
  </metadata>
</svg>
