<svg id="Home-Icon-SVG-pskjfe" xmlns="http://www.w3.org/2000/svg" width="24" height="23.986" viewBox="0 0 24 23.986">
  <path id="Vector" d="M23.121,9.048,15.536,1.462a5.008,5.008,0,0,0-7.072,0L.879,9.048A2.978,2.978,0,0,0,0,11.169v9.817a3,3,0,0,0,3,3H21a3,3,0,0,0,3-3V11.169a2.978,2.978,0,0,0-.879-2.121ZM15,21.986H9V18.052a3,3,0,1,1,6,0Zm7-1a1,1,0,0,1-1,1H17V18.052a5,5,0,1,0-10,0v3.934H3a1,1,0,0,1-1-1V11.169a1.008,1.008,0,0,1,.293-.707L9.878,2.879a3.008,3.008,0,0,1,4.244,0l7.585,7.586a1.008,1.008,0,0,1,.293.7Z"/>
</svg>
