<?xml version="1.0" encoding="utf-8"?>

<!DOCTYPE svg PUBLIC "-//W3C//DTD SVG 1.1//EN" "http://www.w3.org/Graphics/SVG/1.1/DTD/svg11.dtd">
<svg version="1.1" id="Layer_1" xmlns="http://www.w3.org/2000/svg" xmlns:xlink="http://www.w3.org/1999/xlink" x="0px" y="0px"
	 viewBox="0 0 1768.6748 4039.917" enable-background="new 0 0 1768.6748 4039.917" xml:space="preserve">
<g>
	<path fill="blue"  d="M1480.4149,513.8591c6.5796,4.1426,9.9969,11.4573,16.2751,16.0389c3.1447,2.2948,2.053,6.2396-0.3864,8.9343
		c-6.4865,7.1652-2.9451,15.9203-3.7194,23.8882c-0.4189,4.3102,9.3715,10.7571,15.3389,10.8369
		c4.0427,0.054,8.1786-1.1859,9.5024,4.3838c1.3276,5.5845,3.083,12.0305-1.7251,15.9728
		c-5.4288,4.451-7.3395,9.9303-9.0743,16.0609c-2.3884,8.4407-6.9026,15.8835-12.1403,22.7941
		c-3.7104,4.8954-3.4818,8.8969-0.8729,14.5617c4.9169,10.6765,9.5533,21.7144,6.5468,34.231
		c-1.2192,5.076-1.8143,10.3459-0.9017,15.8225c1.45,8.7023-4.925,14.1835-10.05,19.6912
		c-8.1381,8.7462-8.871,11.7345-3.5081,22.7336c0.8699,1.7839,1.9645,3.5812,2.2798,5.4841
		c0.4879,2.9467,0.7961,6.5585-2.358,8.0225c-3.2955,1.5297-4.4531-2.1027-5.849-4.0916c-3.1298-4.4598-7.7167-8.182-5.7115-15.0188
		c1.1042-3.7647-2.1926-6.802-5.0093-9.2115c-2.6328-2.2524-3.3325-4.3629-1.7468-7.7827
		c3.0699-6.6218-0.068-12.5577-3.9174-17.5497c-2.502-3.2447-5.1844-5.8458-4.8971-10.3344
		c0.1263-1.9739-0.8911-3.8791-2.2324-5.4421c-1.4064-1.6389-3.2174-2.7112-5.2279-1.5078
		c-1.6525,0.9894-1.5065,2.9419-0.7329,4.4809c3.2064,6.3789,4.312,13.0154,4.3707,20.2079
		c0.0435,5.3357,2.2736,10.2943-5.572,12.0742c-2.8745,0.6522-2.9185,4.8136-1.2114,6.9236
		c8.3611,10.3357,1.2314,20.3068-0.3219,30.3911c-0.3955,2.5667-2.1262,4.1231-4.7532,4.3846
		c-3.0294,0.3015-6.2623,0.3102-6.8584,4.2794c-0.5876,3.9136,0.5439,8.6301,3.6915,9.7243
		c10.4235,3.6235,10.5917,14.6118,16.5453,21.365c3.6852,4.1802,1.9244,6.9182-3.9561,8.7595
		c-6.8245,2.1369-10.4668,7.7643-9.2865,14.348c1.288,7.185,6.8395,11.3805,14.467,10.4317c2.9836-0.371,5.5616-1.892,7.3663,2.2314
		c3.7346,8.533,11.3427,10.937,19.7626,10.6523c4.6613-0.1575,8.0411,0.4488,11.3132,4.2875
		c3.957,4.6423,10.1069,6.3107,15.7069,8.3541c12.8318,4.6822,25.7821,9.0386,38.6632,13.5875
		c2.8109,0.9927,6.083,1.6124,8.1984,3.4759c7.9368,6.9916,17.8441,10.183,26.8785,15.0833
		c20.8695,11.3195,39.8887,25.4943,56.7867,42.1262c12.9001,12.6968,18.7754,29.6828,24.5546,46.4196
		c11.3638,32.9109,16.8503,67.1293,21.8973,101.3945c3.2189,21.8525,2.2322,43.8823,1.0638,65.8673
		c-1.718,32.3239-1.131,64.4646,3.8804,96.6218c3.6023,23.116,10.1663,45.4468,15.0707,68.2007
		c5.0029,23.2131,8.7294,46.5524,8.3744,70.3167c-0.2542,17.0327,1.7886,33.8776,2.6207,50.8134
		c0.7195,14.6432,0.3286,29.4249-4.7606,43.4412c-7.0521,19.4232-13.1367,39.1405-18.0197,59.1864
		c-4.1865,17.1874-14.1724,30.6515-25.697,43.3031c-4.9337,5.4163-10.2046,10.5243-15.2834,15.8094
		c-9.2523,9.6274-20.2249,12.2198-32.8522,8.1062c-5.7473-1.8722-11.1509-4.5433-15.9689-8.1335
		c-24.8558-18.5215-51.4752-34.4636-76.707-52.4788c-10.6772-7.6233-19.4055-16.9949-29.5764-24.8949
		c-7.3098-5.6775-12.4944-5.0883-15.1393,3.6272c-4.1176,13.5686-9.1854,27.2905-5.765,41.9735
		c1.512,6.4911-1.022,11.6805-4.6151,16.7277c-3.6466,5.1222-7.873,9.8104-9.6223,16.2043
		c-2.1274,7.7765-2.3405,15.0715,2.2738,22.0527c4.0793,6.1716,5.3805,12.6464,2.8916,19.9464
		c-1.3817,4.0529-1.8027,8.4646-2.3823,12.752c-0.7966,5.8911,0.5789,10.9841,4.8904,15.556
		c7.2842,7.7242,11.4636,17.0941,12.5604,27.7266c0.9912,9.6071,1.8823,19.2242,2.8774,28.8308
		c1.5135,14.6136-2.943,28.3804-6.4567,42.1653c-2.842,11.1503-3.1222,22.0751,1.7952,32.2296
		c8.0042,16.5295,9.7335,33.6302,7.9862,51.5621c-1.0059,10.3214-0.2426,20.5403,3.2836,30.5571
		c2.3118,6.5671,3.1423,13.5684,3.1545,20.6399c0.0272,15.6622,0.1976,31.3254,0.4572,46.9858
		c0.5028,30.3224,2.0192,60.582,7.802,90.431c2.0372,10.5157,2.2826,21.1787,3.6976,31.7427
		c2.396,17.8901,9.0741,34.7832,11.4862,52.6343c0.6663,4.9304,1.7943,9.7971,2.6083,14.7097
		c0.2705,1.6326,0.4368,3.666-1.0482,4.6079c-1.9921,1.2637-3.7861-0.0891-5.2773-1.5139
		c-1.6765-1.6018-3.1329-3.4131-5.4508-4.2554c-6.8964-2.5063-11.3141,0.2922-11.146,7.6509
		c0.1823,7.989,1.1003,15.958,1.4221,23.947c1.3553,33.6475,1.6676,67.2864-2.3718,100.7991
		c-1.4447,11.9844-5.9495,23.2231-9.5952,34.6299c-12.3956,38.7849-28.8862,75.9795-45.962,112.8188
		c-9.8287,21.2046-18.2389,42.7249-25.1807,64.9673c-3.8629,12.377-8.4703,24.5447-13.2448,36.6074
		c-4.3378,10.9597-5.1888,22.6865-8.2954,33.9175c-3.1021,11.2156-5.2634,22.7104-7.4491,34.1567
		c-3.8296,20.0557-11.0985,39.1006-17.1753,58.4683c-8.0031,25.5056-14.0625,51.6414-18.2496,77.7524
		c-5.1332,32.0107-8.8212,64.4019-7.3502,97.3799c1.1173,25.0508,2.2847,50.6235-2.8224,75.6934
		c-0.5905,2.8979-0.9437,6.0601-0.4413,8.9309c4.6401,26.5063,0.9675,53.1311,1.1927,79.6885
		c0.1046,12.3325,0.0465,24.5317,1.8517,36.8357c3.7732,25.7161,5.7933,51.5669,5.4468,77.6702
		c-0.256,19.2837,1.5142,38.6042,2.6339,57.8938c1.601,27.5815,3.8564,55.1489,2.3346,82.8025
		c-1.4293,25.9741,0.3849,51.9521-0.4751,77.9299c-0.4294,12.9707-3.1553,17.0527-15.8794,17.9319
		c-21.587,1.4907-43.187,3.123-64.8625,2.5444c-1.6656-0.0444-3.3333-0.2314-4.9943-0.1768
		c-4.9615,0.1626-8.0375,2.5955-9.1267,7.5579c-8.6599,39.4519-23.2023,77.1313-34.9293,115.6592
		c-4.4547,14.6353-8.4753,29.4875-14.2249,43.6182c-5.1454,12.6467-8.3661,25.9512-14.1361,38.3398
		c-1.8214,3.9109-3.5081,8.0012-4.4382,12.1909c-5.2119,23.478-15.2368,45.4036-21.8198,68.4304
		c-4.0199,14.0603-9.3209,27.7942-11.1206,42.4229c-1.2629,10.2646-5.5118,19.9521-5.9524,30.3345
		c-0.9576,22.5735-3.2218,45.1538-0.5819,67.7451c0.7144,6.113-0.1815,12.009-1.5743,17.8115
		c-1.1853,4.9387-1.3351,9.8618-1.5181,14.8579c-0.2136,5.833,2.3313,9.7637,6.6669,13.6636
		c12.1575,10.9358,26.1227,19.4915,38.5026,30.0967c4.132,3.5396,9.1924,5.4358,14.1918,7.2007
		c9.1239,3.2212,12.5137,10.6611,14.1201,19.0723c1.3097,6.8584-2.8143,11.8545-8.5305,14.4211
		c-12.3973,5.5679-22.5043,14.0857-32.4271,23.0127c-1.9655,1.7681-4.2045,3.3269-6.5337,4.5798
		c-10.2203,5.4971-21.0669,9.7932-30.5968,16.6338c-3.2042,2.3-7.2113,3.5154-11.2864,3.7219
		c-29.5651,1.4963-58.9801,6.031-88.7054,4.3518c-3.6831-0.208-7.2845-0.4744-10.7598-1.8682
		c-4.0574-1.6279-8.3087-2.1536-12.6917-2.3782c-10.772-0.5513-16.4207-5.7495-17.4205-16.655
		c-0.6362-6.9377-0.5971-14.0046-0.1184-20.9624c0.8249-11.9878,1.6083-23.9141-0.6244-35.845
		c-0.4848-2.5898-0.465-5.323-0.33-7.9727c0.6003-11.7686-0.5438-23.272-4.7821-34.3569c-1.2232-3.1987-1.0684-6.5557-1.0548-9.8801
		c0.0459-11.3306,0.2086-22.6611,0.1904-33.9917c-0.0074-4.658,0.2372-9.4351-0.6655-13.9514
		c-3.32-16.613,1.8964-30.114,12.0145-43.4314c9.6121-12.6521,17.2231-26.8813,16.3036-44.0427
		c-0.5518-10.2969,0.4335-20.6697,0.0453-30.9829c-0.8768-23.2822-0.2904-46.7444-2.5073-69.8047
		c-2.2692-23.6052-1.8094-47.1929-3.6396-70.678c-1.6102-20.6621-1.5612-41.2549-1.4016-61.865
		c0.1882-24.2954,1.6735-48.5774,2.1823-72.874c0.2786-13.3091-0.3232-26.6357-0.4721-39.9551
		c-0.0541-4.8423-2.4362-8.2175-6.4738-10.4922c-2.0176-1.1365-4.2505-1.8875-6.3724-2.843
		c-7.4051-3.3342-8.8662-5.0657-8.0236-12.9482c1.4859-13.9038,2.5504-27.9653,5.5798-41.5625
		c3.9147-17.5708,7.1727-35.1501,9.7388-52.9836c4.1776-29.0317,7.8065-58.0859,10.252-87.3098
		c1.8612-22.2429,4.28-44.4392,6.1875-66.6787c1.2854-14.9861-1.1609-29.9397-0.8936-44.9458
		c0.1724-9.6709,0.5769-19.2742,1.5476-28.9119c3.038-30.1646,5.017-60.4167,5.8284-90.7253
		c0.3318-12.3916,1.7952-24.5776,4.5778-36.6274c2.7087-11.7305,2.6426-12.3892-6.9277-19.0374
		c-4.1998-2.9172-5.5696-6.0911-3.8424-11.009c3.8463-10.9521,3.2568-22.1541,2.2102-33.5706
		c-1.6721-18.2383-4.469-36.2957-7.0967-54.3918c-0.4846-3.3384-1.406-6.5068-2.7639-9.5649
		c-15.1518-34.125-26.8826-69.614-41.3237-104.0039c-10.3378-24.6179-18.9053-49.8076-27.3824-75.0627
		c-3.0963-9.2246-8.6115-16.5112-16.7195-21.7529c-15.1402-9.7878-30.7245-19.1228-47.5991-25.2603
		c-16.8129-6.115-34.166-10.9417-52.2479-12.8069c-55.6592-5.7417-111.5395-9.2024-167.0832-16.0593
		c-31.8991-3.9377-63.7604-3.7253-95.7744-1.7249c-15.9172,0.9944-31.9687-0.1489-47.9591-0.3401
		c-8.6639-0.1038-17.3691,0.2495-25.9806-0.4846c-10.5772-0.9019-18.4532,2.8298-25.4505,10.6729
		c-17.9835,20.1575-38.6927,37.5962-57.6908,56.7617c-8.2187,8.291-11.0025,7.8669-20.5992,0.9995
		c-21.9156-15.6829-41.9587-33.7747-64.597-48.6113c-15.3943-10.0896-31.8789-17.9949-47.5494-27.4197
		c-31.165-18.7449-65.6927-29.0491-99.935-39.8755c-28.9325-9.147-57.6343-18.4182-83.4417-34.9617
		c-15.9315-10.2126-29.2851-23.0415-40.5793-38.0854c-9.227-12.291-15.2767-26.0696-15.09-41.5608
		c0.2889-23.9719,1.8558-47.8953,5.4356-71.6604c3.8767-25.7363,16.5881-47.0579,33.8403-65.5823
		c17.0396-18.2961,36.3344-34.3982,56.2636-49.4165c18.0486-13.6011,37.6262-25.1589,56.3227-37.9207
		c9.8937-6.7532,20.6774-12.137,29.9898-19.7781c2.0389-1.6729,4.4063-3.0648,6.8203-4.1433
		c25.2645-11.2864,48.4452-26.5231,73.3295-38.5393c31.7798-15.3463,63.8711-29.8831,96.8018-42.6909
		c18.9431-7.3676,38.2401-13.65,57.3914-20.2933c12.8116-4.444,26.2753-7.4224,39.0533-12.0676
		c19.4281-7.0625,39.8383-10.6937,59.1879-17.922c4.0151-1.5,8.3633-2.2095,12.6159-2.9523
		c11.496-2.0078,22.9567-4.1315,34.0403-7.8934c5.4117-1.8368,11.0007-2.5802,16.6732-2.9965
		c8.8269-0.6473,16.8483-3.3451,24.0502-8.7701c7.2759-5.4808,15.4985-9.3225,24.6776-10.1166
		c10.7374-0.9286,20.2621-6.3982,30.9784-7.5577c5.7691-0.624,10.063-5.201,13.87-9.3457
		c7.4977-8.1621,16.4249-13.5292,27.3207-15.4052c5.1796-0.8916,8.4429-3.4142,9.6991-8.637
		c0.8552-3.5557,2.5836-6.9434,3.1224-10.5262c3.2245-21.4413,14.4022-39.1707,26.0496-56.707
		c0.5511-0.8297,1.0134-1.8381,1.7853-2.3833c10.9047-7.7023,13.1091-18.2385,10.9432-30.7664
		c-0.9515-5.5033-0.2482-11.3027-0.197-16.9669c0.0829-9.1486,2.0121-17.87,6.543-25.882
		c4.5886-8.1139,7.2046-16.2952,3.6003-25.6964c-1.8566-4.8425-0.6411-9.7894,1.9667-14.4028
		c4.416-7.813,8.0672-16.0387,14.7521-22.4364c4.5132-4.3195,6.278-10.2108,6.6234-16.3323
		c0.3918-6.9448,2.7971-13.261,7.0238-18.4016c5.6626-6.8871,8.2404-15.1826,12.1437-22.8641
		c2.4321-4.786,2.1682-9.7441-0.7502-14.3096c-5.8472-9.1476-4.618-18.3191-0.5482-27.6658
		c2.9219-6.71,5.8682-13.4325,8.3052-20.3256c4.4756-12.6592,3.6043-24.9294-3.8995-36.3597
		c-4.5907-6.9929-8.418-8.1123-16.0589-4.6528c-20.0241,9.0658-40.3318,17.24-61.4414,23.6262
		c-9.0812,2.7471-18.27,6.0833-26.7816,10.7709c-4.0537,2.2323-8.4935,3.8831-12.9169,5.3027
		c-14.4273,4.63-24.0209,1.4303-33.2247-10.787c-0.801-1.0631-1.5281-2.1855-2.2365-3.3138
		c-6.7286-10.7173-13.4741-21.4241-20.1535-32.172c-3.1999-5.1489-5.2619-10.8446-6.5327-16.6921
		c-4.0303-18.5468-7.6741-37.1772-11.6266-55.7415c-1.903-8.9379-1.3995-17.9063-0.887-26.8824
		c1.1562-20.2527,3.8187-40.373,3.8772-60.7461c0.0521-18.1332,6.3578-35.3049,11.2056-52.6105
		c5.5824-19.928,13.3514-39.0277,21.6579-57.9669c13.438-30.6393,19.3624-62.9471,19.275-96.2981
		c-0.0754-28.8054,2.384-57.3051,9.9257-85.1255c8.1986-30.2437,17.3661-60.2615,32.9914-87.6792
		c10.6272-18.6476,23.1852-35.9724,42.8088-46.3456c16.8221-8.8923,34.4424-15.9291,53.3652-18.8907
		c10.2925-1.6108,20.2539-4.0783,29.5998-8.6576c9.6539-4.7301,19.8146-7.678,30.3396-9.6396
		c3.5772-0.6667,7.2233-1.5341,10.5205-3.0162c7.7167-3.4688,8.6154-8.3857,3.6948-15.4303
		c-9.9341-14.222-11.7372-32.5858-1.9242-46.8557c2.6132-3.8002,3.5985-7.4445,2.3848-12.1529
		c-1.6165-6.2701-1.207-6.3756,5.3015-5.4041c5.3109,0.7928,10.2336-2.8837,9.4461-8.4336
		c-0.9924-6.994-0.0791-13.9995-1.1926-20.9001c-0.4186-2.5948-1.1464-5.2435-2.2916-7.596
		c-2.4846-5.1051-4.618-5.5732-9.2556-2.2463c-7.1018,5.0947-13.5087,10.9007-16.1754,19.5772
		c-1.2109,3.9398-3.216,4.6831-6.647,3.0261c-0.3002-0.145-0.5887-0.3217-0.9008-0.4324
		c-10.7219-3.8055-14.1745-1.9243-16.825,9.2137c-0.4429,1.8613-0.2216,4.3903-2.9246,4.3511
		c-2.3344-0.0338-3.0963-2.2242-3.7156-4.1569c-1.2319-3.8444-0.3252-7.4258,2.2422-10.2745
		c8.3361-9.249,14.8387-19.3941,18.832-31.3761c2.0258-6.0783,7.5499-10.3189,9.2525-17.3149
		c4.068-16.7153,5.707-33.3792,3.8638-50.4412c-0.244-2.2585-1.1669-4.5728,0.0543-6.8152c2.491-1.8864,6.226,3.038,7.8812-1.1311
		c1.7269-4.3493,2.4716-9.0944-0.1176-13.506c-1.6106-2.7439-4.293-3.1353-6.956-1.8444c-1.4186,0.6876-2.4422,2.1761-3.6711,3.273
		c-1.3685,1.2214-2.8467,1.8058-4.3415,0.2545c-1.0222-1.0609-1.3609-2.6777-0.4556-3.644
		c6.6481-7.0967,4.2022-17.2407,8.5663-25.0766c1.6502-2.9628,0.4487-5.8994-0.5647-8.6911
		c-3.8077-10.4888-7.8085-20.9076-11.5815-31.4085c-1.5715-4.3746-3.2093-8.8101-3.9992-13.3599
		c-1.0416-5.9993,0.4765-9.0723,6.2484-10.6935c12.2033-3.4276,18.204-14.219,26.7081-21.8794
		c4.4892-4.0437,2.373-11.437,3.2158-17.3087c0.8428-5.8701-0.2724-10.7585-5.8755-14.7139
		c-4.7785-3.3734-3.6988-7.3635,2.0504-9.1311c3.7209-1.144,6.4446-3.3003,9.2088-5.6921c2.0074-1.737,3.8251-4.3908,6.1355-4.95
		c7.0945-1.7172,10.8079-5.1945,10.9506-12.984c0.0741-4.035,4.2098-6.7642,7.2797-9.171
		c7.6335-5.9848,10.4132-14.4926,12.6665-23.1965c4.5741-17.669,8.2966-35.6062,19.2834-50.8403
		c2.9396-4.0759,3.3895-8.7311,1.7214-13.3574c-2.7836-7.7207-1.278-14.9828,1.2641-22.4261
		c4.6326-13.5645,10.0107-26.8004,16.2458-39.6965c2.6917-5.5672,3.1231-11.581,3.148-17.5736
		c0.0751-18.1432,8.9747-30.8912,24.1108-39.7711c5.9299-3.4789,11.0172-7.3757,12.9242-14.4345
		c1.0302-3.8131,3.7322-6.292,7.7114-7.0098c4.1464-0.7479,7.2421-3.0784,10.1563-5.9548c7.7438-7.6427,8.2632-9.1096,3.439-18.9483
		c-2.3508-4.7943-2.1219-9.1545,0.7877-13.1712c4.8733-6.7276,10.0752-13.2255,15.3231-19.67
		c2.6688-3.2775,6.4679-3.5233,10.0691-2.0223c11.0455,4.6042,19.1931,0.7776,26.2356-7.9913
		c4.3557-5.4236,5.0425-5.462,11.451-0.9868c3.9312,2.7452,6.9114,2.3484,10.9054,0.1183
		c8.0331-4.4856,15.8179-9.6608,25.5331-10.3623c4.8076-0.3471,8.8761-3.2378,11.7242-7.0445
		c7.4496-9.9565,17.3253-10.0801,27.879-7.2168c8.3745,2.2721,16.8259,3.892,25.4135,5.1335
		c8.0289,1.1607,15.8693,1.9534,23.614-1.1862c3.6135-1.4649,6.6116-0.1371,8.9904,2.503
		c5.754,6.3863,12.217,12.2722,14.458,21.1346c1.4843,5.8703,5.4244,8.9347,11.6047,9.019
		c4.3308,0.0591,8.6664,0.1617,12.9878,0.4366c13.7335,0.8736,23.9309,6.8652,29.9287,19.7881
		c4.1952,9.0389,9.2118,17.6991,13.932,26.4905c2.0917,3.8959,5.3915,6.7419,8.7775,9.4677
		c5.7582,4.6353,10.5559,10.1054,14.729,16.2088c3.9264,5.7428,8.2162,10.863,7.8479,18.8129
		c-0.2802,6.0437,2.6384,7.4761,10.0831,7.2208c2.5793-0.0884,3.7025,1.4884,4.5148,3.1739
		c4.3914,9.1147,10.8612,16.7308,17.2418,24.4198c1.0769,1.2978,2.4476,2.6371,2.1646,4.3411
		c-1.1401,6.8612,3.0667,11.5959,6.9857,15.8728c6.9779,7.6151,13.7357,15.3834,20.3297,23.3286
		c3.8079,4.5883,8.1566,8.7841,14.5609,11.9698c-7.2848,5.6458-5.4197,11.8853-2.1355,18.3777
		c1.4908,2.947,3.2996,6.2347,2.6979,9.5047c-1.4951,8.1271,1.4663,14.9689,6.5945,23.1272
		c-10.6438-3.2923-12.8135,4.7703-17.3206,11.2017c-2.14-5.7503,1.5627-9.4345,1.1517-13.5526
		c-0.4583-4.5963-2.6064-8.125-5.6514-11.3759c-3.3931-3.6225-7.6606-3.4323-12.0149-3.1125l0.131,0.2575
		c4.5295-3.9089,1.9708-6.9429-1.2601-9.8327c-1.2435-1.1124-2.938-2.4526-4.3778-1.115c-3.0883,2.8687-2.7427,6.5647-1.2787,10.123
		c0.8501,2.0664,2.8973,2.5908,4.9296,2.9098l-0.2489-0.1256c-3.1782,5.7041-2.4442,10.8145,2.2422,15.3972
		c1.6782,1.6411,3.7404,3.5964,3.3359,5.9204c-1.9712,11.3233,7.9059,15.0389,13.4761,21.4712
		c1.4935,1.7248,3.7236,2.7923,5.453,4.3429c0.6433,0.5768,1.236,1.7319,1.1237,2.5195c-0.2228,1.5646-1.6125,1.7328-3.0436,1.7881
		c-8.4191,0.3251-9.4891,1.1089-10.1108,9.0943c-0.3336,4.2823,0.033,8.6422,0.3722,12.9444c0.183,2.3189,0.8761,5.5204,3.0701,5.92
		c7.5524,1.3758,6.8341,9.9023,12.1122,13.1448c1.83,1.1241,1.9877,3.3515,0.9084,5.3751
		c-1.1382,2.1345-3.0386,2.2441-5.1471,1.9847c-6.135-0.7549-11.4855-3.214-16.2003-7.1784
		c-2.0581-1.7305-4.2972-3.5352-7.1752-2.309c-3.5568,1.5155-2.7958,4.852-2.7888,7.797
		c0.0313,13.4455,7.897,23.7012,14.1748,34.5786c1.1995,2.0782,3.3782,3.4852,5.8818,3.1665
		c7.2866-0.9276,11.6755,3.7608,16.3243,8.0379l0.2428-0.1246c-2.4913-0.0274-5.3268-2.2303-7.3582,0.5796
		c-1.2816,1.7729-0.3718,3.8555,0.8558,5.5133c1.6219,2.1899,3.6365,4.3389,6.5726,3.4886c4.4242-1.281,1.8607-4.8606,1.9688-7.5394
		L1480.4149,513.8591z M1048.1407,2339.9092c-0.0452,0,2.2897,0.0977,4.6141-0.0173c9.9731-0.4927,19.9763-0.7114,29.9036-1.6895
		c7.6494-0.7539,11.0784-4.4866,9.4274-11.1123c-3.9272-15.761-6.3629-32.1272-15.3114-46.2126
		c-6.2477-9.8345-12.655-19.5774-19.3031-29.1445c-6.5887-9.4812-8.343-9.9055-19.1968-7.0874
		c-14.1844,3.6831-28.4799,6.9324-42.951,9.2117c-41.1061,6.4744-82.2847,12.4949-123.36,19.1558
		c-20.3644,3.3025-40.5688,7.5967-60.835,11.4961c-3.3124,0.6379-6.8312,1.4897-7.5373,5.4763
		c-0.8003,4.519,2.6011,6.5032,5.9374,8.1575c2.0735,1.0286,4.3592,1.6304,6.554,2.4116c7.8375,2.7905,15.8268,5.218,23.4863,8.4321
		c20.686,8.6802,42.0073,14.9766,64.2365,18.0696c18.4506,2.5667,36.8821,5.332,55.3889,7.4165
		C987.9507,2337.7114,1016.6566,2342.1321,1048.1407,2339.9092z M953.7291,824.9194c-0.9891-6.8938-2.6617-13.7742-2.7966-20.6848
		c-0.1729-8.8693-2.8094-15.8264-10.3716-20.8903c-2.0292-1.3589-3.6092-3.205-6.0187-1.6292
		c-2.2693,1.4843-2.398,4.0559-1.4362,6.2626c1.5833,3.633,1.2136,6.7799-0.3433,10.4308
		c-3.7977,8.9066,1.6232,26.6989,9.348,32.3687c2.6535,1.9475,5.3246,2.5968,8.2838,0.8038
		C952.9007,830.0623,954.1457,827.9074,953.7291,824.9194z M1419.7593,796.3195c0.5499,7.0322,0.262,13.8804,6.881,18.2154
		c2.2231,1.4561,4.1676,3.7841,7.0573,2.7324c3.4878-1.2693,5.4158-4.4773,5.104-7.8614
		c-0.5658-6.1448-0.0568-12.7905-4.7683-17.8309c-2.573-2.7527-3.952-8.1461-8.8708-6.6479
		C1419.6849,786.5952,1420.35,792.2108,1419.7593,796.3195z M992.9818,807.3669c0.0459-5.9252-4.6521-12.886-8.8254-13.0765
		c-4.7933-0.2186-8.3065,5.1787-8.3141,12.7736c-0.0004,0.3332-0.0127,0.667,0.0021,0.9996
		c0.2727,6.1421,3.3275,9.8471,7.8329,9.5045C988.064,817.2346,992.9468,811.8813,992.9818,807.3669z M1467.7389,611.8401
		c0.5306-5.1687-0.5593-8.4925-3.2416-11.2231c-1.4686-1.495-3.2911-2.1534-5.3508-1.4059
		c-2.1649,0.7857-2.7687,2.5989-2.7457,4.7028c0.0469,4.3152,0.6486,8.5412,3.1251,12.184c2.3153,3.4058,5.924,2.9916,7.4875-0.8315
		C1467.6173,613.7902,1467.6885,612.0959,1467.7389,611.8401z M1488.2803,676.2681c-0.0295-4.2421-3.3037-8.6625-6.5675-8.8665
		c-3.0404-0.1901-5.6354,2.994-5.6129,6.8871c0.0253,4.3715,3.3535,7.5676,7.6501,7.3094
		C1487.0908,681.3973,1488.2928,679.3392,1488.2803,676.2681z M942.6228,602.8703c-3.8647,0.1932-9.7196,5.8148-9.8863,9.6135
		c-0.073,1.6623,0.3007,3.2635,2.0231,4.0999c1.3328,0.6472,2.5981,0.1964,3.6721-0.5408c3.3143-2.2744,5.8784-5.2048,6.9375-9.1616
		C945.9632,604.6619,945.324,602.9833,942.6228,602.8703z M1449.6573,658.564c3.2762-3.9324,4.526-8.3022,2.5781-13.3405
		c-0.3738-0.9669-1.5428-1.1581-2.5079-0.6116c-3.1428,1.7796-3.8167,7.8336-1.4874,13.3685
		C1448.3297,658.1932,1448.8263,658.235,1449.6573,658.564z M959.4055,782.9739c-1.6522,0.1055-2.4384,1.0828-2.5997,2.4236
		c-0.2474,2.0581,0.3492,3.9943,2.56,4.4488c1.361,0.2798,2.2127-1.0683,2.3926-2.4163
		C962.034,785.3633,961.5015,783.6483,959.4055,782.9739z M948.92,779.7284c1.0806-0.5208,1.241-1.471,0.9979-2.4756
		c-0.2534-1.0481-0.9458-1.783-2.0418-1.1047c-0.4271,0.2644-0.6625,1.1283-0.6669,1.7214
		C947.2015,778.9136,947.6715,779.7402,948.92,779.7284z M928.742,532.6463c-1.0587,0.2266-1.54,0.9498-1.5009,1.9562
		c0.0402,1.0304,0.6537,1.8842,1.6597,1.9054c1.5074,0.0317,2.1531-1.0089,1.8492-2.4175
		C930.545,533.141,929.7612,532.6344,928.742,532.6463z M917.029,545.9901c0.7667-3.1386,0.556-4.1617-0.4681-4.5458
		c-1.174-0.4407-1.7978,0.4635-2.0352,1.4676c-0.2363,0.9999-0.0375,2.122,0.9932,2.4719
		C916.5972,545.7496,917.3027,544.9715,917.029,545.9901z M1423.1937,279.8017c-0.3517-0.3013-0.7032-0.6025-1.0549-0.9038
		c-0.1565,0.2138-0.4806,0.5756-0.443,0.6182c0.3027,0.3428,0.6736,0.6253,1.0234,0.9264
		C1422.8765,280.23,1423.0336,280.0176,1423.1937,279.8017z M1428.3748,738.9317c0.0199,0.2883-0.0739,0.6848,0.0793,0.8461
		c0.6392,0.6719,1.1227,0.5087,1.2073-0.4061c0.0209-0.2272-0.2493-0.6198-0.4666-0.6916
		C1428.9731,738.607,1428.6521,738.8354,1428.3748,738.9317z"/>
	<path d="M1497.5854,464.3034c-0.6255,0.4678-1.1923,1.1889-1.5354,1.0947c-1.1951-0.3282-1.1624-1.4641-0.9983-2.4216
		c0.1315-0.7659,0.0238-2.4066,1.5237-1.2575C1497.2157,462.2094,1497.2788,463.4535,1497.5854,464.3034z"/>
	<path d="M1461.4015,813.433c0.4556,0.312,1.1371,0.5336,1.3082,0.96c0.2712,0.6756-0.2174,1.1821-0.9774,1.1687
		c-0.2476-0.0043-0.7072-0.3165-0.6969-0.4617C1461.0748,814.5392,1461.2649,813.9888,1461.4015,813.433z"/>
	<path d="M1446.3512,365.4969c-0.7014,0.7385-1.4028,1.4769-2.1046,2.2163c-0.0004,0.0009,0.2485,0.1265,0.2488,0.1264
		c0.6624-0.6951,1.3247-1.3901,1.9868-2.0851L1446.3512,365.4969z"/>
	<path d="M1478.2551,511.7092c0.7195,0.7164,1.4387,1.4329,2.1589,2.1497c0.0009,0.0002,0.1229-0.2321,0.1229-0.2322
		c-0.6797-0.6808-1.3593-1.3614-2.0391-2.042L1478.2551,511.7092z"/>
</g>
</svg>
